<?xml version="1.0" encoding="UTF-8" standalone="no"?>
<!-- Created with Inkscape (http://www.inkscape.org/) -->

<svg
   width="152.8636mm"
   height="161.36099mm"
   viewBox="0 0 152.86359 161.36099"
   version="1.1"
   id="svg1"
   xml:space="preserve"
   inkscape:version="1.3.2 (091e20e, 2023-11-25, custom)"
   sodipodi:docname="logo2.svg"
   xmlns:inkscape="http://www.inkscape.org/namespaces/inkscape"
   xmlns:sodipodi="http://sodipodi.sourceforge.net/DTD/sodipodi-0.dtd"
   xmlns="http://www.w3.org/2000/svg"
   xmlns:svg="http://www.w3.org/2000/svg"><sodipodi:namedview
     id="namedview1"
     pagecolor="#ffffff"
     bordercolor="#000000"
     borderopacity="0.25"
     inkscape:showpageshadow="2"
     inkscape:pageopacity="0.0"
     inkscape:pagecheckerboard="0"
     inkscape:deskcolor="#d1d1d1"
     inkscape:document-units="mm"
     inkscape:zoom="0.52604868"
     inkscape:cx="469.53829"
     inkscape:cy="86.493896"
     inkscape:window-width="2560"
     inkscape:window-height="1377"
     inkscape:window-x="2552"
     inkscape:window-y="-8"
     inkscape:window-maximized="1"
     inkscape:current-layer="layer1" /><defs
     id="defs1" /><g
     inkscape:label="Warstwa 1"
     inkscape:groupmode="layer"
     id="layer1"
     transform="translate(-36.480844,-13.821484)"><path
       style="opacity:1;fill:#000000"
       d="m 54.628916,70.859595 c 1.33223,-11.243316 5.46662,-21.211271 12.41163,-29.924289 1.95476,-2.452394 7.09385,-7.49379 9.55963,-9.377916 8.31142,-6.350828 17.23732,-10.134556 27.782674,-11.777197 3.43303,-0.534761 12.70607,-0.57519 16.10286,-0.0702 9.2221,1.371004 16.97954,4.276214 24.38087,9.130792 12.17164,7.983456 20.76581,20.014808 24.37681,34.126166 0.49821,1.946963 1.38411,6.80395 1.38411,7.588489 0,0.61904 -0.22577,0.548309 -0.63194,-0.19798 -0.43841,-0.805522 -1.96511,-2.241498 -3.05273,-2.871322 -1.28874,-0.746284 -2.92727,-1.089273 -4.84889,-1.014998 l -1.66099,0.0642 -0.16932,-0.637259 c -1.17987,-4.440616 -2.23768,-7.286095 -4.0068,-10.778195 -6.63048,-13.088063 -19.03394,-22.515249 -33.57022,-25.514871 -3.78023,-0.780066 -5.46611,-0.937841 -10.02117,-0.937841 -4.55505,0 -6.24093,0.157775 -10.02116,0.937841 -18.270804,3.770255 -32.814834,17.570765 -37.380864,35.469869 -0.256,1.003532 -0.52175,1.879739 -0.59056,1.947125 -0.0688,0.06739 -0.58052,0.03887 -1.13714,-0.06337 -2.8551,-0.524409 -6.21865,0.99164 -7.93665,3.577276 -0.43434,0.653693 -0.85337,1.188533 -0.93117,1.188533 -0.0778,0 -0.0954,-0.389183 -0.039,-0.864852 z"
       id="path35" /><path
       style="opacity:1;fill:#000000"
       d="m 145.90717,105.32462 c -0.85693,-0.30233 -1.47509,-0.85131 -1.85826,-1.6503 -0.2424,-0.50545 -0.28637,-1.58656 -0.28637,-7.040196 0,-6.322751 0.008,-6.458023 0.41401,-7.244789 0.62559,-1.211446 1.21313,-1.55135 2.68159,-1.55135 1.48014,0 2.27716,0.459677 2.81001,1.620654 0.31314,0.682285 0.34253,1.293005 0.34253,7.118905 0,5.798136 -0.0305,6.438236 -0.33799,7.100876 -0.41421,0.89255 -0.8869,1.32441 -1.80383,1.64799 -0.87549,0.30896 -1.08142,0.30877 -1.96169,-0.002 z"
       id="path33" /><path
       style="opacity:1;fill:#000000"
       d="m 77.456756,105.32462 c -0.85693,-0.30233 -1.47508,-0.85131 -1.85825,-1.6503 -0.24281,-0.5063 -0.28592,-1.59021 -0.28335,-7.124296 0.003,-6.418271 0.01,-6.539013 0.41401,-7.238328 0.66451,-1.149864 1.25312,-1.473711 2.67856,-1.473711 1.48186,0 2.19187,0.410741 2.77682,1.606386 0.36688,0.749916 0.38362,1.064999 0.37976,7.145133 -0.004,5.781386 -0.0348,6.426946 -0.34203,7.088916 -0.4142,0.89255 -0.8869,1.32441 -1.80382,1.64799 -0.8755,0.30896 -1.08143,0.30877 -1.9617,-0.002 z"
       id="path31" /><path
       style="opacity:1;fill:#000000"
       d="m 137.1384,110.85778 c -0.25296,-0.10526 -0.65414,-0.37081 -0.89152,-0.59011 -0.98554,-0.9105 -0.94864,-0.3107 -0.94864,-15.419836 0,-15.529056 -0.0699,-14.624255 1.2036,-15.585385 1.33349,-1.006416 3.35272,-0.682792 4.3471,0.696709 l 0.42951,0.595863 0.0493,14.063203 c 0.0546,15.572886 0.10647,14.858456 -1.14711,15.804566 -0.75212,0.56764 -2.21933,0.77743 -3.04226,0.43499 z"
       id="path29" /><path
       style="opacity:1;fill:#000000"
       d="m 85.699376,110.80641 c -0.67398,-0.3026 -1.50279,-1.23637 -1.693,-1.90739 -0.0759,-0.26767 -0.13795,-6.67264 -0.13795,-14.233256 0,-15.332192 -0.0805,-14.364717 1.28097,-15.392261 1.29317,-0.975994 3.28832,-0.6965 4.2884,0.600747 l 0.50285,0.652275 0.0493,14.077449 c 0.0546,15.588586 0.10653,14.872656 -1.14711,15.818816 -0.80321,0.6062 -2.25352,0.78319 -3.14349,0.38362 z"
       id="path27" /><path
       style="opacity:1;fill:#000000"
       d="m 119.73148,111.26192 c -0.41482,-0.19201 -0.95304,-0.62495 -1.19604,-0.96207 l -0.44181,-0.61296 V 93.905324 c 0,-15.655269 0.003,-15.785605 0.37938,-16.284386 0.73823,-0.978387 1.30128,-1.253602 2.56472,-1.253602 0.89796,0 1.28953,0.08833 1.68857,0.38089 0.87478,0.641364 1.31019,1.452243 1.43652,2.675297 0.0643,0.622335 0.0913,7.604252 0.0599,15.515371 -0.0526,13.288606 -0.0814,14.428186 -0.37873,14.966176 -0.80498,1.45661 -2.61028,2.05223 -4.11255,1.35685 z"
       id="path25" /><path
       style="opacity:1;fill:#000000"
       d="m 103.00511,111.34164 c -0.71107,-0.31271 -1.28942,-0.94045 -1.64728,-1.78794 -0.24917,-0.5901 -0.28479,-2.53687 -0.28479,-15.566046 0,-9.183659 0.0691,-15.130158 0.18038,-15.513962 0.20271,-0.699381 0.95076,-1.555009 1.69655,-1.940537 1.16676,-0.603144 3.02791,-0.09221 3.85777,1.059059 l 0.42951,0.595863 0.0491,15.546197 0.049,15.546186 -0.46046,0.77747 c -0.77191,1.30333 -2.51236,1.88068 -3.86978,1.28371 z"
       id="path23" /><path
       style="opacity:1;fill:#000000"
       d="m 170.38214,117.30365 c -0.21245,-0.21022 -0.14572,-40.263469 0.0673,-40.393743 0.25085,-0.153405 2.24605,0.779981 3.81757,1.785916 6.58458,4.214809 10.55466,11.898638 10.09464,19.537521 -0.48404,8.037696 -5.14325,15.038986 -12.39488,18.625506 -1.1975,0.59225 -1.383,0.64432 -1.58464,0.4448 z"
       id="path21" /><path
       style="opacity:1;fill:#000000"
       d="m 52.950296,116.64591 c -5.86336,-3.05058 -9.80262,-8.04226 -11.4548,-14.5151 -0.43306,-1.69663 -0.48798,-2.260096 -0.48798,-5.007026 0,-2.74693 0.0549,-3.31041 0.48798,-5.00704 1.63083,-6.3892 5.50356,-11.357827 11.18383,-14.348635 0.75903,-0.399647 1.56636,-0.781417 1.79406,-0.848379 l 0.41402,-0.121748 v 20.313532 c 0,16.132266 -0.0473,20.312426 -0.23001,20.308206 -0.1265,-0.003 -0.8947,-0.35114 -1.7071,-0.77381 z"
       id="path19" /><path
       style="opacity:1;fill:#000000"
       d="m 128.19952,120.3571 c -0.89451,-0.402 -1.4793,-1.08724 -1.73746,-2.0359 -0.12619,-0.46371 -0.17232,-8.62453 -0.13863,-24.524076 l 0.0505,-23.829111 0.4896,-0.731994 c 1.34049,-2.004163 4.32318,-1.770613 5.46762,0.428124 0.15027,0.288706 0.207,7.020568 0.207,24.564011 v 24.166296 l -0.45742,0.77233 c -0.50375,0.85056 -1.66733,1.53843 -2.59078,1.53159 -0.29696,-0.002 -0.87765,-0.15577 -1.29042,-0.34127 z"
       id="path17" /><path
       style="opacity:1;fill:#000000"
       d="m 94.522603,120.35544 c -0.414827,-0.18641 -0.953047,-0.61476 -1.196047,-0.95189 l -0.44181,-0.61296 -0.0511,-24.215846 c -0.0281,-13.318718 -0.006,-24.398701 0.0487,-24.622181 0.13722,-0.558859 1.16674,-1.684322 1.739124,-1.901194 1.38177,-0.523544 3.156799,0.07967 3.855813,1.310339 l 0.391687,0.689595 -0.04798,24.369651 -0.04798,24.369636 -0.441812,0.61296 c -0.494673,0.68629 -1.666567,1.29082 -2.502292,1.29082 -0.303611,0 -0.891423,-0.15252 -1.306249,-0.33893 z"
       id="path15" /><path
       style="opacity:1;fill:#000000"
       d="m 159.03284,122.89381 c -2.77058,-0.48736 -4.85466,-2.63093 -5.32295,-5.4749 -0.25188,-1.52973 -0.24639,-39.32677 0.006,-40.839965 0.35044,-2.101532 1.74376,-3.94144 3.6632,-4.837324 0.87991,-0.410691 1.25226,-0.472153 2.8521,-0.470771 1.57971,0.0014 1.95722,0.06276 2.66809,0.433896 1.26185,0.658801 2.11307,1.388942 2.7321,2.343488 1.17094,1.805583 1.13204,1.015825 1.13204,22.98451 0,21.999676 0.0411,21.175576 -1.14656,23.006906 -1.37813,2.12507 -4.07718,3.29511 -6.58395,2.85416 z"
       id="path13" /><path
       style="opacity:1;fill:#000000"
       d="m 63.912056,122.87044 c -2.05402,-0.39841 -3.83032,-1.80619 -4.76298,-3.77485 l -0.48954,-1.03329 V 97.032744 76.003188 l 0.48309,-1.001408 c 0.68447,-1.418844 1.60792,-2.387846 2.95305,-3.09869 1.00116,-0.529073 1.38286,-0.62526 2.72808,-0.687469 1.29487,-0.05988 1.75407,-0.0016 2.6681,0.338871 1.51536,0.564396 3.1866,2.2103 3.74451,3.687731 l 0.40018,1.059775 -0.0483,20.971186 -0.0483,20.971186 -0.4779,1.00141 c -0.91397,1.91517 -2.66822,3.22547 -4.85348,3.62519 -1.20635,0.22067 -1.15613,0.22068 -2.29655,-5.3e-4 z"
       id="path11" /><path
       style="opacity:1;fill:#000000"
       d="m 111.4694,133.00742 c -0.68574,-0.30287 -1.47777,-1.1249 -1.73636,-1.80212 -0.27488,-0.71992 -0.2753,-76.727373 -4.2e-4,-77.448819 0.27913,-0.732571 1.23763,-1.655019 1.96732,-1.893309 1.51523,-0.49482 3.48984,0.511676 3.90493,1.99042 0.2534,0.902728 0.25872,76.332968 0.005,77.235078 -0.20553,0.73209 -1.12843,1.69618 -1.89881,1.98357 -0.69214,0.25821 -1.56806,0.23289 -2.2421,-0.0648 z"
       id="path9" /><path
       style="fill:#000000"
       d="m 163.23677,170.49828 c -2.99076,-0.55829 -5.4824,-1.90806 -6.99782,-3.79085 -1.34293,-1.66849 -2.34486,-4.27341 -2.65087,-6.89197 l -0.12086,-1.03425 0.62185,-0.10349 c 1.34543,-0.22391 8.75055,-1.19638 9.11016,-1.19638 0.34277,0 0.39414,0.14203 0.50014,1.38288 0.25022,2.92893 1.6751,4.37956 3.94398,4.01523 1.27341,-0.20447 2.26149,-1.29217 2.60232,-2.86469 0.12921,-0.59618 0.19781,-4.88735 0.19781,-12.37438 v -11.46171 h 5.33619 5.33619 l -0.002,10.69685 c -0.002,10.5875 -0.0932,12.72896 -0.65484,15.29488 -0.82747,3.78032 -3.61528,6.66907 -7.71595,7.99532 -1.32352,0.42806 -1.80625,0.48214 -4.78417,0.53598 -2.34483,0.0424 -3.72405,-0.017 -4.72262,-0.20342 z M 44.031026,153.18976 v -17.03678 l 9.70634,0.0751 c 11.03802,0.0854 11.26653,0.1098 14.1724,1.51328 3.49077,1.68598 5.92994,4.77819 7.02129,8.9011 0.63081,2.38307 0.80185,4.31861 0.70019,7.92335 -0.0792,2.80952 -0.17198,3.6614 -0.55699,5.11662 -0.76036,2.8739 -2.02274,4.98134 -4.15277,6.93271 -1.51313,1.38622 -2.90633,2.16578 -4.81099,2.692 -3.03604,0.83878 -4.18859,0.91788 -13.38517,0.91866 l -8.6943,7.3e-4 z m 15.44662,9.2101 c 3.3301,-0.37881 4.77972,-1.82671 5.35369,-5.34734 0.3524,-2.16162 0.14391,-7.34841 -0.35755,-8.89481 -1.01145,-3.11907 -3.27909,-4.30789 -8.25233,-4.3263 l -1.51806,-0.006 v 9.37682 9.37682 l 1.61006,-0.001 c 0.88553,-7.6e-4 2.30942,-0.0809 3.16419,-0.17817 z m 22.0907,-9.19726 v -17.02393 l 9.89035,0.003 c 9.842154,0.003 12.385894,0.11566 14.490514,0.64097 3.19706,0.79798 5.41742,2.96576 6.26493,6.11654 0.34603,1.28642 0.33869,3.99813 -0.0145,5.33969 -0.83987,3.19062 -3.59164,5.83012 -6.94649,6.66307 l -0.88002,0.21849 1.4563,0.70121 c 2.2711,1.09353 3.31467,2.49121 6.69925,8.97242 1.49205,2.85715 2.71281,5.23925 2.71281,5.29356 0,0.0543 -2.68328,0.0987 -5.96283,0.0987 h -5.96284 l -3.19092,-5.87189 c -3.539156,-6.51269 -4.168526,-7.36612 -5.716713,-7.75186 -0.472129,-0.11764 -1.152961,-0.21388 -1.512961,-0.21388 h -0.65454 v 6.91881 6.91882 h -5.33619 -5.33619 z m 16.883545,-3.47478 c 0.776313,-0.15867 1.635729,-0.40324 1.909809,-0.54348 0.85687,-0.43845 1.33466,-1.30217 1.41553,-2.5589 0.0962,-1.49578 -0.40614,-2.43918 -1.61209,-3.02723 -0.766764,-0.3739 -1.149606,-0.41488 -4.382287,-0.46913 l -3.542127,-0.0594 v 3.47333 3.47333 h 2.399844 c 1.473482,0 2.944685,-0.11136 3.811321,-0.28848 z m 20.469769,3.4738 v -17.04864 l 9.70634,0.0777 c 8.04983,0.0644 9.9127,0.12708 10.91549,0.36736 5.45432,1.30693 8.81514,4.70314 10.2862,10.3945 0.85334,3.30148 0.94335,8.54738 0.20695,12.06133 -0.86333,4.11966 -3.63304,7.83056 -7.10787,9.52325 -0.64684,0.3151 -2.06941,0.78859 -3.16126,1.05221 l -1.98518,0.4793 -9.43034,0.0708 -9.43033,0.0708 z m 16.7065,9.00682 c 1.85372,-0.39737 3.21814,-1.88022 3.84698,-4.18088 0.25476,-0.93206 0.32265,-1.89905 0.3196,-4.55185 -0.005,-4.72655 -0.46295,-6.41075 -2.16267,-7.96103 -1.16408,-1.06175 -2.69034,-1.50076 -5.69195,-1.63722 l -2.34608,-0.10666 v 9.43229 9.43228 l 2.53009,-0.10908 c 1.39154,-0.06 2.96836,-0.20303 3.50403,-0.31785 z M 111.4694,133.00742 c -0.68574,-0.30287 -1.47777,-1.1249 -1.73636,-1.80212 -0.27488,-0.71992 -0.27529,-76.727372 -4.2e-4,-77.448818 0.27913,-0.732571 1.23763,-1.655019 1.96732,-1.893309 1.51523,-0.49482 3.48984,0.511676 3.90493,1.99042 0.2534,0.902728 0.25872,76.332967 0.005,77.235077 -0.20553,0.73209 -1.12843,1.69618 -1.89881,1.98357 -0.69214,0.25821 -1.56806,0.23289 -2.2421,-0.0648 z m 2.8059,-0.61976 c 1.24534,-0.87744 1.15024,2.42208 1.15024,-39.906765 0,-34.933849 -0.026,-38.325885 -0.2987,-38.894409 -0.89158,-1.859124 -3.62717,-2.012946 -4.80381,-0.270117 l -0.41769,0.618667 v 38.545859 38.545845 l 0.41769,0.61867 c 0.85338,1.26402 2.71543,1.61372 3.95227,0.74225 z m -50.363234,-9.51722 c -2.05403,-0.39841 -3.83033,-1.80619 -4.76299,-3.77485 l -0.48954,-1.03329 V 97.032744 76.003189 l 0.48309,-1.001408 c 0.68447,-1.418844 1.60792,-2.387846 2.95305,-3.09869 1.00116,-0.529073 1.38286,-0.62526 2.72808,-0.687469 1.29487,-0.05988 1.75407,-0.0016 2.6681,0.338871 1.51536,0.564396 3.18661,2.2103 3.74451,3.687731 l 0.40018,1.059775 -0.0483,20.971185 -0.0483,20.971186 -0.47789,1.00141 c -0.91397,1.91517 -2.66823,3.22547 -4.85349,3.62519 -1.20635,0.22067 -1.15613,0.22068 -2.29655,-5.3e-4 z m 3.75789,-0.77642 c 1.97501,-0.89469 3.21346,-2.5062 3.58847,-4.6694 0.14458,-0.83405 0.18923,-7.06468 0.15133,-21.120166 l -0.0538,-19.937117 -0.40022,-0.965994 c -1.77434,-4.282684 -7.21354,-5.308234 -10.34195,-1.949953 -0.43507,0.467039 -0.96996,1.232255 -1.18865,1.70048 l -0.39762,0.851319 V 97.032744 118.0623 l 0.48538,1.0014 c 1.50795,3.11111 5.06315,4.43187 8.15702,3.03032 z m 91.362884,0.79979 c -2.77058,-0.48736 -4.85466,-2.63093 -5.32295,-5.4749 -0.25188,-1.52973 -0.24639,-39.326769 0.006,-40.839964 0.35044,-2.101532 1.74376,-3.94144 3.6632,-4.837324 0.87991,-0.410691 1.25226,-0.472153 2.8521,-0.470771 1.57971,0.0014 1.95722,0.06276 2.66809,0.433896 1.26185,0.658801 2.11307,1.388942 2.7321,2.343488 1.17094,1.805583 1.13204,1.015825 1.13204,22.984509 0,21.999676 0.0411,21.175576 -1.14656,23.006906 -1.37813,2.12507 -4.07718,3.29511 -6.58395,2.85416 z m 3.00878,-0.55698 c 1.52923,-0.46736 3.00535,-1.74299 3.74756,-3.23852 l 0.51415,-1.03601 V 97.032744 76.003189 l -0.51005,-1.027419 c -0.62459,-1.258126 -1.84204,-2.400022 -3.22843,-3.028064 -0.83358,-0.37762 -1.32575,-0.472413 -2.45277,-0.472413 -1.21376,0 -1.57603,0.08091 -2.60372,0.581526 -1.39352,0.678825 -2.37023,1.673669 -3.04858,3.105186 l -0.48488,1.023258 v 20.847481 20.847476 l 0.51563,1.09245 c 0.62374,1.32148 1.5771,2.3379 2.74973,2.93161 1.6986,0.86 3.01478,0.97858 4.80136,0.43255 z m -67.519014,-1.98139 c -0.414827,-0.18641 -0.95305,-0.61476 -1.19604,-0.95189 l -0.44182,-0.61296 -0.0511,-24.215846 c -0.0281,-13.318717 -0.006,-24.3987 0.0487,-24.62218 0.13722,-0.558859 1.166743,-1.684322 1.739127,-1.901194 1.38177,-0.523544 3.156799,0.07967 3.855813,1.310339 l 0.391687,0.689595 -0.04798,24.36965 -0.04798,24.369636 -0.441812,0.61296 c -0.494673,0.68629 -1.666567,1.29082 -2.502292,1.29082 -0.303611,0 -0.891423,-0.15252 -1.306249,-0.33893 z m 2.688169,-0.42688 c 0.334572,-0.22532 0.781533,-0.64098 0.993246,-0.92369 l 0.384932,-0.51402 0.0509,-23.883896 c 0.05643,-26.474584 0.123781,-24.933987 -1.131535,-25.881407 -1.296983,-0.978869 -3.248216,-0.588361 -4.067342,0.814011 -0.36852,0.630919 -0.37222,0.877591 -0.37222,24.794246 v 24.156976 l 0.38493,0.51405 c 0.625406,0.8352 1.512839,1.33339 2.375166,1.33339 0.499346,0 0.989267,-0.14523 1.38192,-0.40966 z m 30.988745,0.42854 c -0.89451,-0.402 -1.4793,-1.08724 -1.73746,-2.0359 -0.12619,-0.46371 -0.17232,-8.62453 -0.13863,-24.524076 l 0.0505,-23.82911 0.4896,-0.731994 c 1.34049,-2.004163 4.32318,-1.770613 5.46762,0.428124 0.15027,0.288706 0.207,7.020568 0.207,24.56401 v 24.166296 l -0.45742,0.77233 c -0.50375,0.85056 -1.66733,1.53843 -2.59078,1.53159 -0.29696,-0.002 -0.87765,-0.15577 -1.29042,-0.34127 z m 2.83427,-0.51319 c 0.27077,-0.1997 0.63665,-0.60692 0.81306,-0.90495 0.30057,-0.50779 0.32099,-2.06237 0.32462,-24.721786 0.004,-27.368689 0.14869,-24.920647 -1.51734,-25.741406 -0.68596,-0.337935 -1.02284,-0.400277 -1.62185,-0.300138 -0.95675,0.159944 -1.94866,1.006541 -2.20447,1.881518 -0.13375,0.457488 -0.17766,8.140824 -0.14028,24.549796 l 0.0544,23.883896 0.38493,0.51402 c 0.71854,0.95952 1.53671,1.37526 2.52687,1.28398 0.48826,-0.045 1.10928,-0.24523 1.38005,-0.44493 z m -78.083494,-3.198 c -5.86336,-3.05058 -9.80262,-8.04226 -11.4548,-14.5151 -0.43306,-1.69663 -0.48797,-2.260096 -0.48797,-5.007026 0,-2.74693 0.0549,-3.31041 0.48797,-5.007039 1.63083,-6.3892 5.50356,-11.357827 11.18383,-14.348635 0.75903,-0.399647 1.56636,-0.781417 1.79407,-0.848379 l 0.41401,-0.121748 v 20.313531 c 0,16.132266 -0.0473,20.312426 -0.23001,20.308206 -0.1265,-0.003 -0.8947,-0.35114 -1.7071,-0.77381 z m 1.7531,-19.522126 c 0,-10.965412 -0.0495,-19.937113 -0.1099,-19.937113 -0.34492,0 -3.30117,1.688403 -4.48354,2.560686 -9.37807,6.918541 -11.63521,19.707897 -5.18749,29.393313 1.05372,1.58285 3.56182,4.1836 5.1775,5.36878 1.1126,0.81614 4.13519,2.54112 4.46543,2.5484 0.0759,0.002 0.138,-8.96866 0.138,-19.934066 z M 170.38214,117.30365 c -0.21245,-0.21022 -0.14572,-40.263468 0.0673,-40.393742 0.25085,-0.153405 2.24605,0.779981 3.81757,1.785916 6.58458,4.214809 10.55466,11.898638 10.09464,19.53752 -0.48404,8.037696 -5.14325,15.038986 -12.39488,18.625506 -1.1975,0.59225 -1.383,0.64432 -1.58464,0.4448 z m 1.58123,-0.81288 c 2.07934,-1.03862 3.70261,-2.21978 5.58966,-4.06726 3.00653,-2.94349 4.87565,-6.19274 5.91692,-10.2859 0.43899,-1.72563 0.48695,-2.238996 0.47687,-5.104866 -0.01,-2.82266 -0.065,-3.38546 -0.48276,-4.931489 -1.49676,-5.539489 -4.53778,-9.889814 -8.99159,-12.862894 -1.20462,-0.804127 -3.48349,-2.05169 -3.74773,-2.05169 -0.0535,0 -0.0973,8.971701 -0.0973,19.937113 0,10.965406 0.0438,19.937106 0.0973,19.937106 0.0535,0 0.61087,-0.25655 1.23863,-0.57012 z m -68.95826,-5.14913 c -0.71106,-0.31271 -1.28941,-0.94045 -1.64728,-1.78794 -0.24917,-0.5901 -0.28479,-2.53687 -0.28479,-15.566046 0,-9.183658 0.0691,-15.130157 0.18038,-15.513961 0.20271,-0.699381 0.95076,-1.555009 1.69655,-1.940537 1.16676,-0.603144 3.02792,-0.09221 3.85777,1.059059 l 0.42952,0.595863 0.0491,15.546196 0.049,15.546186 -0.46047,0.77747 c -0.7719,1.30333 -2.51236,1.88068 -3.86978,1.28371 z m 2.62377,-0.47029 c 0.32984,-0.19899 0.76502,-0.62883 0.96707,-0.95521 0.36063,-0.58251 0.36651,-0.87976 0.32033,-16.191626 l -0.047,-15.598233 -0.46001,-0.487105 c -1.43082,-1.515072 -3.68868,-1.293054 -4.62747,0.455024 -0.32384,0.603012 -0.34056,1.387192 -0.33768,15.840444 l 0.003,15.206026 0.41099,0.70934 c 0.7534,1.30033 2.51671,1.77793 3.77078,1.02134 z m 14.1026,0.39057 c -0.41482,-0.19201 -0.95304,-0.62495 -1.19604,-0.96207 l -0.44181,-0.61296 V 93.905324 c 0,-15.655268 0.003,-15.785604 0.37938,-16.284385 0.73823,-0.978387 1.30128,-1.253602 2.56472,-1.253602 0.89796,0 1.28953,0.08833 1.68857,0.38089 0.87478,0.641364 1.31019,1.452243 1.43652,2.675297 0.0643,0.622335 0.0913,7.604252 0.0599,15.51537 -0.0526,13.288606 -0.0814,14.428186 -0.37873,14.966176 -0.80498,1.45661 -2.61028,2.05223 -4.11255,1.35685 z m 2.68459,-0.36521 c 0.37542,-0.19923 0.80829,-0.65914 1.05516,-1.12108 l 0.4186,-0.78328 -0.004,-15.037986 c -0.004,-14.267093 -0.0216,-15.076215 -0.34628,-15.783667 -0.50433,-1.098833 -1.41567,-1.596518 -2.7265,-1.488956 -0.91653,0.07521 -1.10691,0.165558 -1.72065,0.816611 -0.55936,0.59337 -0.71257,0.917741 -0.80876,1.712294 -0.0653,0.539136 -0.0933,7.549438 -0.0623,15.578448 0.0559,14.483456 0.0594,14.602236 0.44129,15.112146 0.96329,1.28616 2.45848,1.6827 3.7535,0.99547 z m -36.716694,-0.0903 c -0.67398,-0.3026 -1.50279,-1.23637 -1.69299,-1.90739 -0.0759,-0.26767 -0.13795,-6.67264 -0.13795,-14.233256 0,-15.332191 -0.0805,-14.364716 1.28096,-15.39226 1.29317,-0.975994 3.28832,-0.6965 4.2884,0.600747 l 0.50285,0.652275 0.0493,14.077448 c 0.0546,15.588586 0.10653,14.872656 -1.14711,15.818816 -0.80321,0.6062 -2.25352,0.78319 -3.14348,0.38362 z m 3.23882,-0.9721 c 0.56306,-0.59729 0.71622,-0.92071 0.81275,-1.71623 0.0654,-0.53914 0.0935,-6.89398 0.0623,-14.121866 -0.056,-13.005163 -0.0606,-13.146968 -0.44156,-13.65556 -0.72471,-0.967576 -1.53404,-1.374034 -2.57199,-1.291704 -1.12949,0.08959 -1.78859,0.527544 -2.28459,1.518038 -0.36154,0.722015 -0.37068,1.074058 -0.37068,14.280846 0,13.300096 0.007,13.554346 0.37907,14.315406 0.55899,1.14261 1.29895,1.55617 2.63694,1.47379 0.99195,-0.0611 1.14282,-0.12919 1.77775,-0.80272 z m 48.200204,1.02347 c -0.25296,-0.10526 -0.65414,-0.37081 -0.89152,-0.59011 -0.98554,-0.9105 -0.94864,-0.3107 -0.94864,-15.419836 0,-15.529055 -0.0699,-14.624254 1.2036,-15.585384 1.33349,-1.006416 3.35272,-0.682792 4.3471,0.696709 l 0.42951,0.595863 0.0493,14.063202 c 0.0546,15.572886 0.10647,14.858456 -1.14711,15.804566 -0.75212,0.56764 -2.21933,0.77743 -3.04226,0.43499 z m 3.04161,-0.90317 c 0.35504,-0.34051 0.72927,-0.92683 0.83162,-1.30294 0.11986,-0.44044 0.16772,-5.50909 0.13445,-14.240456 -0.0512,-13.43016 -0.0552,-13.561412 -0.43657,-14.070553 -0.72471,-0.96758 -1.53404,-1.374042 -2.572,-1.291711 -1.12949,0.08959 -1.78859,0.527544 -2.28458,1.518038 -0.36155,0.722015 -0.37069,1.074058 -0.37069,14.280846 0,13.300096 0.007,13.554346 0.37907,14.315406 0.55524,1.13492 1.30095,1.55599 2.61309,1.4755 0.91136,-0.0559 1.15064,-0.15188 1.70561,-0.68413 z m -62.723254,-4.62999 c -0.85692,-0.30233 -1.47508,-0.85131 -1.85825,-1.6503 -0.24281,-0.5063 -0.28592,-1.59021 -0.28335,-7.124296 0.003,-6.41827 0.01,-6.539012 0.41401,-7.238327 0.66451,-1.149864 1.25312,-1.473711 2.67857,-1.473711 1.48185,0 2.19186,0.410741 2.77681,1.606386 0.36688,0.749916 0.38363,1.064999 0.37976,7.145132 -0.004,5.781386 -0.0348,6.426946 -0.34202,7.088916 -0.41421,0.89255 -0.88691,1.32441 -1.80383,1.64799 -0.8755,0.30896 -1.08142,0.30877 -1.9617,-0.002 z m 2.43961,-0.60268 c 0.26177,-0.19179 0.66225,-0.61957 0.88996,-0.95063 0.41008,-0.59621 0.41401,-0.66304 0.41401,-7.044466 0,-7.170821 -0.0163,-7.282544 -1.19428,-8.171575 -0.53368,-0.402782 -0.87697,-0.5142 -1.5843,-0.5142 -1.01792,0 -1.65806,0.369267 -2.3276,1.342695 -0.41048,0.596784 -0.41401,0.658097 -0.41401,7.17802 0,7.500146 -0.005,7.471656 1.49143,8.263966 0.93963,0.49746 1.95703,0.4587 2.72479,-0.10381 z m 66.010804,0.60268 c -0.85693,-0.30233 -1.47509,-0.85131 -1.85826,-1.6503 -0.2424,-0.50545 -0.28637,-1.58656 -0.28637,-7.040196 0,-6.32275 0.008,-6.458022 0.41401,-7.244788 0.62559,-1.211446 1.21313,-1.55135 2.68159,-1.55135 1.48014,0 2.27716,0.459677 2.81001,1.620654 0.31314,0.682285 0.34253,1.293005 0.34253,7.118904 0,5.798136 -0.0305,6.438236 -0.33799,7.100876 -0.41421,0.89255 -0.8869,1.32441 -1.80383,1.64799 -0.87549,0.30896 -1.08142,0.30877 -1.96169,-0.002 z m 2.4396,-0.60268 c 0.26177,-0.19179 0.66225,-0.61957 0.88996,-0.95063 0.41052,-0.59685 0.41401,-0.65751 0.41401,-7.193766 0,-6.536266 -0.003,-6.59693 -0.41401,-7.19378 -0.67377,-0.979582 -1.30824,-1.342695 -2.34608,-1.342695 -1.03785,0 -1.67231,0.363113 -2.34609,1.342695 -0.41047,0.596784 -0.41401,0.658097 -0.41401,7.17802 0,7.500146 -0.005,7.471656 1.49143,8.263966 0.93963,0.49746 1.95703,0.4587 2.72479,-0.10381 z M 54.628916,70.859595 c 1.33223,-11.243316 5.46662,-21.211271 12.41163,-29.924289 1.95476,-2.452394 7.09384,-7.49379 9.55963,-9.377916 8.31142,-6.350828 17.23732,-10.134556 27.782674,-11.777197 3.43303,-0.534761 12.70607,-0.57519 16.10286,-0.0702 9.2221,1.371004 16.97954,4.276214 24.38087,9.130792 12.17164,7.983456 20.7658,20.014808 24.3768,34.126166 0.49821,1.946963 1.38411,6.80395 1.38411,7.588489 0,0.61904 -0.22577,0.548309 -0.63194,-0.19798 -0.43841,-0.805522 -1.96511,-2.241498 -3.05273,-2.871322 -1.28874,-0.746284 -2.92727,-1.089273 -4.84889,-1.014998 l -1.66099,0.0642 -0.16932,-0.637259 c -1.17987,-4.440616 -2.23767,-7.286095 -4.00679,-10.778195 -6.63048,-13.088063 -19.03394,-22.515249 -33.57022,-25.514871 -3.78023,-0.780066 -5.46611,-0.937841 -10.02117,-0.937841 -4.55505,0 -6.24093,0.157775 -10.02116,0.937841 -18.270804,3.770255 -32.814834,17.570765 -37.380864,35.469869 -0.256,1.003532 -0.52176,1.879739 -0.59056,1.947125 -0.0688,0.06739 -0.58052,0.03887 -1.13714,-0.06337 -2.8551,-0.524409 -6.21865,0.99164 -7.93665,3.577276 -0.43434,0.653693 -0.85337,1.188533 -0.93117,1.188533 -0.0778,0 -0.0954,-0.389183 -0.039,-0.864852 z m 2.24141,-2.265626 c 1.59234,-1.417939 3.34678,-2.003165 5.82227,-1.942131 l 1.82499,0.045 0.51325,-2.008043 c 1.56015,-6.103834 4.31844,-11.738434 8.41017,-17.1802 2.08674,-2.775251 6.64308,-7.272686 9.54653,-9.423123 16.935108,-12.542975 39.495274,-13.166251 57.094874,-1.577377 9.83169,6.473913 17.16417,16.734088 20.234,28.312979 l 0.4144,1.563069 0.93829,-0.183574 c 1.33734,-0.261648 3.51175,0.08608 5.03423,0.805059 0.78709,0.3717 1.62213,0.977632 2.378,1.725566 1.03465,1.023788 1.15582,1.097816 1.08344,0.661908 -0.94594,-5.696676 -1.90908,-9.364315 -3.51976,-13.403245 -4.74206,-11.891116 -13.24637,-21.81238 -24.30111,-28.350055 -6.98217,-4.129193 -14.75359,-6.735341 -23.07005,-7.736552 -3.33721,-0.401764 -9.9139,-0.40288 -13.21681,-0.0022 -6.805211,0.825458 -12.874084,2.590184 -18.876494,5.488971 -15.14736,7.315223 -26.41462,20.932899 -30.65407,37.048694 -0.58781,2.234482 -1.45506,6.833026 -1.45506,7.715349 v 0.532622 l 0.52186,-0.710096 c 0.28703,-0.390553 0.8617,-1.012711 1.27706,-1.382574 z"
       id="path2" /></g></svg>
